<?xml version="1.0" standalone="no"?>
<!DOCTYPE svg PUBLIC "-//W3C//DTD SVG 20010904//EN"
 "http://www.w3.org/TR/2001/REC-SVG-20010904/DTD/svg10.dtd">
<svg version="1.0" xmlns="http://www.w3.org/2000/svg"
 width="512.000000pt" height="512.000000pt" viewBox="0 0 512.000000 512.000000"
 preserveAspectRatio="xMidYMid meet">

<g transform="translate(0.000000,512.000000) scale(0.100000,-0.100000)"
fill="#000000" stroke="none">
<path d="M1919 4690 c-113 -20 -201 -85 -251 -188 l-33 -67 -4 -237 -3 -238
81 0 81 0 0 208 c0 114 5 223 10 244 13 45 75 103 127 117 54 15 1204 15 1258
0 51 -14 110 -73 124 -124 6 -23 11 -126 11 -242 l0 -203 81 0 81 0 -4 233
c-4 212 -6 237 -27 290 -31 78 -109 157 -188 188 l-58 24 -620 2 c-341 0 -641
-2 -666 -7z"/>
<path d="M419 3836 c-126 -47 -200 -122 -251 -256 -10 -28 -14 -289 -16 -1374
-1 -818 1 -1366 7 -1409 18 -129 99 -244 207 -294 88 -40 171 -44 844 -41
l635 3 5 940 c3 560 9 946 14 955 31 48 621 878 637 895 25 25 83 25 108 0 16
-17 581 -811 629 -883 16 -24 17 -102 22 -967 l5 -940 685 0 c618 0 690 2 740
17 72 22 142 73 191 138 74 98 70 -4 67 1555 l-3 1400 -27 57 c-37 80 -105
149 -181 184 l-62 29 -2110 2 c-1721 1 -2117 -1 -2146 -11z"/>
<path d="M2321 2733 l-232 -328 236 -3 c130 -1 340 -1 466 0 l229 3 -226 320
c-124 176 -229 323 -233 328 -4 4 -112 -140 -240 -320z"/>
<path d="M2010 1350 l0 -890 103 0 104 0 6 287 c4 157 7 558 7 890 l0 603
-110 0 -110 0 0 -890z"/>
<path d="M2386 1358 c-4 -496 -3 -885 2 -890 5 -5 82 -7 173 -6 l164 3 0 203
c0 111 -1 510 -3 887 l-2 685 -163 0 -164 0 -7 -882z"/>
<path d="M2880 1448 c0 -436 3 -837 7 -890 l6 -98 104 0 103 0 0 890 0 890
-110 0 -110 0 0 -792z"/>
</g>
</svg>
